<svg xmlns="http://www.w3.org/2000/svg" viewBox="0 0 64 64" role="img" aria-label="blamr">
  <title>blamr</title>
  <defs>
    <marker id="arr-cy" viewBox="0 0 10 10" refX="8" refY="5" markerWidth="4" markerHeight="4" orient="auto-start-reverse">
      <path d="M2 1L8 5L2 9" fill="none" stroke="#0891B2" stroke-width="1.8" stroke-linecap="round" stroke-linejoin="round"/>
    </marker>
    <marker id="arr-re" viewBox="0 0 10 10" refX="8" refY="5" markerWidth="4" markerHeight="4" orient="auto-start-reverse">
      <path d="M2 1L8 5L2 9" fill="none" stroke="#DC2626" stroke-width="1.8" stroke-linecap="round" stroke-linejoin="round"/>
    </marker>
  </defs>
  <circle cx="32" cy="32" r="28" fill="none" stroke="#1E3050" stroke-width="1" stroke-dasharray="3 4"/>
  <circle cx="18" cy="26" r="5" fill="#0A1628" stroke="#1E3050" stroke-width="1.2"/>
  <circle cx="18" cy="38" r="5" fill="#0A1628" stroke="#1E3050" stroke-width="1.2"/>
  <circle cx="32" cy="20" r="5" fill="#0A1628" stroke="#0891B2" stroke-width="1"/>
  <circle cx="32" cy="44" r="5" fill="#0A1628" stroke="#1E3050" stroke-width="1.2"/>
  <circle cx="46" cy="32" r="5" fill="#0A1628" stroke="#1E3050" stroke-width="1.2"/>
  <circle cx="16" cy="32" r="7" fill="rgba(220,38,38,0.12)" stroke="#DC2626" stroke-width="1.8"/>
  <circle cx="16" cy="32" r="9.5" fill="none" stroke="#DC2626" stroke-width="0.7" stroke-dasharray="2 3" opacity="0.45"/>
  <circle cx="50" cy="32" r="4.5" fill="rgba(220,38,38,0.15)" stroke="#DC2626" stroke-width="1.2"/>
  <line x1="23" y1="29" x2="27" y2="23" stroke="#DC2626" stroke-width="1.5" opacity="0.75" marker-end="url(#arr-re)"/>
  <line x1="23" y1="35" x2="27" y2="41" stroke="#DC2626" stroke-width="1.2" opacity="0.55" marker-end="url(#arr-re)"/>
  <line x1="37" y1="23" x2="41" y2="29" stroke="#0891B2" stroke-width="1.1" opacity="0.6" marker-end="url(#arr-cy)"/>
  <line x1="37" y1="41" x2="41" y2="35" stroke="#0891B2" stroke-width="1.1" opacity="0.5" marker-end="url(#arr-cy)"/>
  <line x1="51" y1="32" x2="46" y2="32" stroke="#DC2626" stroke-width="1.6" opacity="0.85" marker-end="url(#arr-re)"/>
  <text x="16" y="34" text-anchor="middle" font-family="ui-monospace, monospace" font-size="4.5" font-weight="600" fill="#FCA5A5">root</text>
  <rect x="10.5" y="36.5" width="11" height="5" rx="2" fill="#DC2626" opacity="0.92"/>
  <text x="16" y="40" text-anchor="middle" font-family="ui-monospace, monospace" font-size="3.5" font-weight="700" fill="#fff">89%</text>
</svg>
